{
  "streams": [
    {
      "index": 0,
      "codec_name": "h264",
      "codec_long_name": "H.264 / AVC / MPEG-4 AVC / MPEG-4 part 10",
      "profile": "High",
      "codec_type": "video",
      "codec_time_base": "1271/76200",
      "codec_tag_string": "avc1",
      "codec_tag": "0x31637661",
      "width": 1920,
      "height": 1080,
      "coded_width": 1920,
      "coded_height": 1088,
      "has_b_frames": 0,
      "pix_fmt": "yuv420p",
      "level": 40,
      "color_range": "tv",
      "color_space": "bt709",
      "color_transfer": "bt709",
      "color_primaries": "bt709",
      "chroma_location": "left",
      "refs": 1,
      "is_avc": "true",
      "nal_length_size": "4",
      "r_frame_rate": "30000/1001",
      "avg_frame_rate": "38100/1271",
      "time_base": "1/600",
      "start_pts": 0,
      "start_time": "0.000000",
      "duration_ts": 5084,
      "duration": "8.473333",
      "bit_rate": "15356575",
      "bits_per_raw_sample": "8",
      "nb_frames": "254",
      "disposition": {
        "default": 1,
        "dub": 0,
        "original": 0,
        "comment": 0,
        "lyrics": 0,
        "karaoke": 0,
        "forced": 0,
        "hearing_impaired": 0,
        "visual_impaired": 0,
        "clean_effects": 0,
        "attached_pic": 0,
        "timed_thumbnails": 0
      },
      "tags": {
        "rotate": "90",
        "creation_time": "2019-07-24T19:54:18.000000Z",
        "language": "und",
        "handler_name": "Core Media Video",
        "encoder": "H.264"
      },
      "side_data_list": [
        {
          "side_data_type": "Display Matrix",
          "displaymatrix": "\n00000000:            0       65536           0\n00000001:       -65536           0           0\n00000002:     70778880           0  1073741824\n",
          "rotation": -90
        }
      ]
    },
    {
      "index": 1,
      "codec_name": "aac",
      "codec_long_name": "AAC (Advanced Audio Coding)",
      "profile": "LC",
      "codec_type": "audio",
      "codec_time_base": "1/44100",
      "codec_tag_string": "mp4a",
      "codec_tag": "0x6134706d",
      "sample_fmt": "fltp",
      "sample_rate": "44100",
      "channels": 2,
      "channel_layout": "stereo",
      "bits_per_sample": 0,
      "r_frame_rate": "0/0",
      "avg_frame_rate": "0/0",
      "time_base": "1/44100",
      "start_pts": 0,
      "start_time": "0.000000",
      "duration_ts": 373674,
      "duration": "8.473333",
      "bit_rate": "188414",
      "max_bit_rate": "192000",
      "nb_frames": "368",
      "disposition": {
        "default": 1,
        "dub": 0,
        "original": 0,
        "comment": 0,
        "lyrics": 0,
        "karaoke": 0,
        "forced": 0,
        "hearing_impaired": 0,
        "visual_impaired": 0,
        "clean_effects": 0,
        "attached_pic": 0,
        "timed_thumbnails": 0
      },
      "tags": {
        "creation_time": "2019-07-24T19:54:18.000000Z",
        "language": "und",
        "handler_name": "Core Media Audio"
      }
    },
    {
      "index": 2,
      "codec_type": "data",
      "codec_tag_string": "mebx",
      "codec_tag": "0x7862656d",
      "r_frame_rate": "0/0",
      "avg_frame_rate": "0/0",
      "time_base": "1/600",
      "start_pts": 0,
      "start_time": "0.000000",
      "duration_ts": 4170,
      "duration": "6.950000",
      "bit_rate": "30816",
      "nb_frames": "157",
      "disposition": {
        "default": 1,
        "dub": 0,
        "original": 0,
        "comment": 0,
        "lyrics": 0,
        "karaoke": 0,
        "forced": 0,
        "hearing_impaired": 0,
        "visual_impaired": 0,
        "clean_effects": 0,
        "attached_pic": 0,
        "timed_thumbnails": 0
      },
      "tags": {
        "creation_time": "2019-07-24T19:54:18.000000Z",
        "language": "und",
        "handler_name": "Core Media Metadata"
      }
    },
    {
      "index": 3,
      "codec_type": "data",
      "codec_tag_string": "mebx",
      "codec_tag": "0x7862656d",
      "r_frame_rate": "0/0",
      "avg_frame_rate": "0/0",
      "time_base": "1/600",
      "start_pts": 0,
      "start_time": "0.000000",
      "duration_ts": 5084,
      "duration": "8.473333",
      "bit_rate": "9",
      "nb_frames": "1",
      "disposition": {
        "default": 1,
        "dub": 0,
        "original": 0,
        "comment": 0,
        "lyrics": 0,
        "karaoke": 0,
        "forced": 0,
        "hearing_impaired": 0,
        "visual_impaired": 0,
        "clean_effects": 0,
        "attached_pic": 0,
        "timed_thumbnails": 0
      },
      "tags": {
        "creation_time": "2019-07-24T19:54:18.000000Z",
        "language": "und",
        "handler_name": "Core Media Metadata"
      }
    }
  ]
}
